<?xml version="1.0" standalone="no"?><!DOCTYPE svg PUBLIC "-//W3C//DTD SVG 1.1//EN" "http://www.w3.org/Graphics/SVG/1.1/DTD/svg11.dtd"><svg t="1742546160178" class="icon" viewBox="0 0 1024 1024" version="1.1" xmlns="http://www.w3.org/2000/svg" p-id="6512" width="48" height="48" xmlns:xlink="http://www.w3.org/1999/xlink"><path d="M184.32 411.694V193.13l218.453-0.11 0.11 218.563-218.563 0.11z m218.563-291.38H184.21a72.818 72.818 0 0 0-72.709 72.744V411.73a72.818 72.818 0 0 0 72.709 72.708h218.672a72.818 72.818 0 0 0 72.708-72.744V193.058a72.818 72.818 0 0 0-72.708-72.708zM184.32 848.6V630.038l218.453-0.11 0.11 218.563-218.563 0.11z m218.563-291.38H184.21a72.818 72.818 0 0 0-72.709 72.745v218.672a72.818 72.818 0 0 0 72.709 72.708h218.672A72.818 72.818 0 0 0 475.59 848.6V629.965a72.818 72.818 0 0 0-72.708-72.709z m327.643-100.27L575.97 302.394l154.41-154.556 154.63 154.447L730.525 456.95z m205.965-205.965L781.863 96.356a72.818 72.818 0 0 0-102.819 0L524.415 250.948a72.199 72.199 0 0 0-21.226 51.264 72.199 72.199 0 0 0 21.226 51.555l154.629 154.665a72.709 72.709 0 0 0 102.819-0.036L936.49 353.767a72.745 72.745 0 0 0 0-102.819zM621.227 848.6V630.038l218.453-0.11 0.11 218.563-218.563 0.11z m218.562-291.38H621.117a72.818 72.818 0 0 0-72.708 72.745v218.672a72.818 72.818 0 0 0 72.708 72.708H839.79a72.818 72.818 0 0 0 72.709-72.745V629.965a72.818 72.818 0 0 0-72.709-72.709z" p-id="6513" fill="#e6e6e6"></path></svg>